<svg xmlns="http://www.w3.org/2000/svg" viewBox="0 0 320 90" role="img" aria-label="Velora Sourcing International">
  <defs><style>.a{fill:#f4ebdc}.b{fill:#b58a54}.c{fill:#151515}.d{stroke:#b58a54;stroke-width:3;fill:none;stroke-linecap:round}.t{font-family:Georgia,Times New Roman,serif;font-size:37px;letter-spacing:8px}.s{font-family:Arial,sans-serif;font-size:9px;letter-spacing:5px}</style></defs>
  <g transform="translate(8 8)">
    <path class="c" d="M42 6C24 16 17 35 24 52c4 10 14 17 21 28 2-17-5-26-15-33 15 1 26 11 32 27 8-22-4-42-20-68z"/>
    <path class="b" d="M80 6C99 18 106 37 96 54 91 62 81 67 72 80c-1-18 8-29 20-36-16 2-28 12-36 30-2-25 8-48 24-68z"/>
    <path class="d" d="M49 18a38 38 0 0 1 47 0M49 35h47M72 4v47M58 9c-8 11-8 29 0 40M88 9c8 11 8 29 0 40"/>
  </g>
  <text x="128" y="42" class="c t">VELORA</text>
  <text x="132" y="63" class="b s">SOURCING INTERNATIONAL</text>
</svg>